<?xml version="1.0" standalone="no"?>
<!DOCTYPE svg PUBLIC "-//W3C//DTD SVG 1.0//EN" "http://www.w3.org/TR/2001/REC-SVG-20010904/DTD/svg10.dtd">
<svg xmlns="http://www.w3.org/2000/svg" xmlns:xlink="http://www.w3.org/1999/xlink" id="body_1" width="313" height="189">

<g transform="matrix(0.3505039 0 0 0.349353 0 0)">
    <path transform="matrix(1.000433 0 0 1.000366 0 0)"  d="M119.8961 71.32961C 119.8962 58.62706 115.4051 47.78476 106.4231 38.8027C 97.44101 29.82064 86.5987 25.32961 73.89615 25.32961C 61.1936 25.32961 50.3513 29.82064 41.36924 38.8027C 32.38718 47.78476 27.89615 58.62706 27.89615 71.32961C 27.89615 84.03217 32.38718 94.87447 41.36924 103.8565C 50.3513 112.8386 61.1936 117.3296 73.89615 117.3296C 86.5987 117.3296 97.44101 112.8386 106.4231 103.8565C 115.4051 94.87447 119.8962 84.03217 119.8961 71.32961" stroke="none" fill="#FF6584" fill-rule="nonzero" />
    <path transform="matrix(1.000433 0 0 1.000366 0 0)"  d="M0 522.802C 0 512.8609 198.787 504.802 444.0032 504.802C 689.2194 504.802 888.0063 512.8609 888.0063 522.802C 888.0063 532.7431 689.2194 540.802 444.0032 540.802C 198.787 540.802 0 532.7431 0 522.802" stroke="none" fill="#E6E6E6" fill-rule="nonzero" />
    <path transform="matrix(1.000433 0 0 1.000366 0 0)"  d="M226 184.2194C 226 153.0153 214.9677 126.381 192.9031 104.3163C 170.8385 82.25172 144.2041 71.21941 113 71.21941C 81.79591 71.21941 55.16155 82.25172 33.09693 104.3163C 11.03231 126.381 0 153.0153 0 184.2194C 0 215.4235 11.03231 242.0579 33.09693 264.1225C 55.16155 286.1871 81.79591 297.2194 113 297.2194C 144.2041 297.2194 170.8385 286.1871 192.9031 264.1225C 214.9677 242.0579 226 215.4235 226 184.2194" stroke="none" fill="#FF9C00" fill-rule="nonzero" />
    <path transform="matrix(1.000433 0 0 1.000366 0 0)"  d="M123.892 524.581L100.747 524.581L111.298 167.201L123.892 524.581" stroke="none" fill="#3F3D56" fill-rule="nonzero" />
    <path transform="matrix(1.000433 0 0 1.000366 0 0)"  d="M113.34 234.933L138.187 200.557L113 243.442L110.277 238.677L113.34 234.933" stroke="none" fill="#3F3D56" fill-rule="nonzero" />
    <path transform="matrix(1.000433 0 0 1.000366 0 0)"  d="M110.617 269.65L85.771 235.274L110.958 278.159L113.681 273.394L110.617 269.65" stroke="none" fill="#3F3D56" fill-rule="nonzero" />
    <path transform="matrix(1.000433 0 0 1.000366 0 0)"  d="M827.505 524.957L804.361 524.957L814.912 167.577L827.505 524.957" stroke="none" fill="#3F3D56" fill-rule="nonzero" />
    <path transform="matrix(1.000433 0 0 1.000366 0 0)"  d="M816.954 235.309L841.801 200.933L816.614 243.818L813.891 239.053L816.954 235.309" stroke="none" fill="#3F3D56" fill-rule="nonzero" />
    <path transform="matrix(1.000433 0 0 1.000366 0 0)"  d="M814.231 270.026L789.385 235.65L814.572 278.535L817.295 273.77L814.231 270.026" stroke="none" fill="#3F3D56" fill-rule="nonzero" />
    <path transform="matrix(1.000433 0 0 1.000366 0 0)"  d="M669.5592 314.3933C 669.5592 256.2643 649.0075 206.6481 607.9041 165.5448C 566.8007 124.4414 517.1846 103.8897 459.0556 103.8897C 400.9266 103.8897 351.3105 124.4414 310.2071 165.5448C 269.1037 206.6481 248.552 256.2643 248.552 314.3933C 248.552 372.5222 269.1037 422.1384 310.2071 463.2418C 351.3105 504.3452 400.9266 524.8969 459.0556 524.8969C 517.1846 524.8969 566.8007 504.3452 607.9041 463.2418C 649.0075 422.1384 669.5592 372.5222 669.5592 314.3933" stroke="none" fill="#3F3D56" fill-rule="nonzero" />
    <path transform="matrix(1.000433 0 0 1.000366 0 0)"  d="M652.1334 314.3933C 652.1334 261.0763 633.283 215.5675 595.5822 177.8667C 557.8815 140.1659 512.3726 121.3155 459.0556 121.3155C 405.7386 121.3155 360.2298 140.1659 322.529 177.8667C 284.8282 215.5675 265.9778 261.0763 265.9778 314.3933C 265.9778 367.7102 284.8282 413.2191 322.529 450.9199C 360.2298 488.6207 405.7386 507.4711 459.0556 507.4711C 512.3726 507.4711 557.8815 488.6207 595.5822 450.9199C 633.283 413.2191 652.1334 367.7102 652.1334 314.3933" stroke="none" fill="#FFFFFF" fill-rule="nonzero" />
    <path transform="matrix(1.000433 0 0 1.000366 0 0)"  d="M484.1487 315.0903C 484.1487 307.9686 481.6308 301.8897 476.595 296.8539C 471.5591 291.8181 465.4803 289.3001 458.3586 289.3001C 451.2368 289.3001 445.158 291.8181 440.1222 296.8539C 435.0864 301.8897 432.5685 307.9686 432.5684 315.0903C 432.5685 322.2121 435.0864 328.2909 440.1222 333.3267C 445.158 338.3625 451.2368 340.8805 458.3586 340.8805C 465.4803 340.8805 471.5591 338.3625 476.595 333.3267C 481.6308 328.2909 484.1487 322.2121 484.1487 315.0903" stroke="none" fill="#3F3D56" fill-rule="nonzero" />
    <path transform="matrix(1.000433 0 0 1.000366 0 0)"  d="M452.7823 131.0739L463.9348 131.0739L463.9348 151.9849L452.7823 151.9849L452.7823 131.0739z" stroke="none" fill="#3F3D56" fill-rule="nonzero" />
    <path transform="matrix(1.000433 0 0 1.000366 0 0)"  d="M452.7823 478.1957L463.9348 478.1957L463.9348 499.1067L452.7823 499.1067L452.7823 478.1957z" stroke="none" fill="#3F3D56" fill-rule="nonzero" />
    <path transform="matrix(1.000433 0 0 1.000366 0 0)"  d="M295.2532 309.514L295.2532 320.6665L274.3423 320.6665L274.3423 309.514L295.2532 309.514z" stroke="none" fill="#3F3D56" fill-rule="nonzero" />
    <path transform="matrix(1.000433 0 0 1.000366 0 0)"  d="M642.3751 309.514L642.3751 320.6666L621.4641 320.6666L621.4641 309.514L642.3751 309.514z" stroke="none" fill="#3F3D56" fill-rule="nonzero" />
    <path transform="matrix(1.000433 0 0 1.000366 0 0)"  d="M450.924 326.286L460.455 304.493L579.88 370.635L450.924 326.286" stroke="none" fill="#3F3D56" fill-rule="nonzero" />
    <path transform="matrix(1.000433 0 0 1.000366 0 0)"  d="M431.8714 53.00636L486.2398 53.00636L486.2398 115.7392L431.8714 115.7392L431.8714 53.00636z" stroke="none" fill="#3F3D56" fill-rule="nonzero" />
    <path transform="matrix(1.000433 0 0 1.000366 0 0)"  d="M396.3228 53.00636C 396.3228 43.38235 424.4092 35.58057 459.0556 35.58057C 493.702 35.58057 521.7885 43.38235 521.7885 53.00636C 521.7885 62.63036 493.702 70.43214 459.0556 70.43214C 424.4092 70.43214 396.3228 62.63036 396.3228 53.00636" stroke="none" fill="#3F3D56" fill-rule="nonzero" />
    <path transform="matrix(1.000433 0 0 1.000366 -153.7597 -179.6647)"  d="M730.1985 531.2834L726.7133 536.1627C 726.7133 536.1627 710.6816 554.9825 709.9846 545.9211L709.9846 545.9211L716.9549 541.7389L730.1985 531.2834z" stroke="none" fill="#FFB8B8" fill-rule="nonzero" />
    <path transform="matrix(1.000433 0 0 1.000366 -153.7597 -179.6647)"  d="M829.4178 547.7452L832.3361 552.9832C 832.3361 552.9832 842.4846 575.5268 833.9966 572.2789L833.9966 572.2789L833.1997 564.1893L829.4178 547.7452z" stroke="none" fill="#FFB8B8" fill-rule="nonzero" />
    <path transform="matrix(1.000433 0 0 1.000366 0 0)"  d="M681.2578 254.0424C 681.2578 248.1815 679.1856 243.179 675.0413 239.0346C 670.897 234.8904 665.8944 232.8182 660.0335 232.8182C 654.1726 232.8182 649.17 234.8904 645.0257 239.0346C 640.8815 243.179 638.8093 248.1815 638.8093 254.0424C 638.8093 259.9034 640.8815 264.906 645.0257 269.0503C 649.17 273.1946 654.1726 275.2667 660.0335 275.2667C 665.8944 275.2667 670.897 273.1946 675.0413 269.0503C 679.1856 264.906 681.2578 259.9034 681.2578 254.0424" stroke="none" fill="#2F2E41" fill-rule="nonzero" />
    <path transform="matrix(1.000433 0 0 1.000366 -153.7597 -179.6647)"  d="M811.7512 607.957L814.5394 626.0798L814.5394 631.656L830.5711 631.656L830.5711 624.6857C 830.5711 624.6857 831.2681 612.1392 828.48 608.654C 825.692 605.1688 811.7512 607.957 811.7512 607.957z" stroke="none" fill="#FFB8B8" fill-rule="nonzero" />
    <path transform="matrix(1.000433 0 0 1.000366 -153.7597 -179.6647)"  d="M783.1729 607.957L785.9611 626.0798L785.9611 631.656L801.9928 631.656L801.9928 624.6857C 801.9928 624.6857 802.6898 612.1392 799.9017 608.654C 797.1136 605.1688 783.1729 607.957 783.1729 607.957z" stroke="none" fill="#FFB8B8" fill-rule="nonzero" />
    <path transform="matrix(1.000433 0 0 1.000366 -153.7597 -179.6647)"  d="M793.9613 462.3837C 793.9613 462.3837 787.795 465.6337 792.0067 473.0266L792.0067 473.0266L806.2625 468.9797L793.6902 420.6092L786.4914 390.2076L793.9613 462.3837z" stroke="none" fill="#FF9C00" fill-rule="nonzero" />
    <path transform="matrix(1.000433 0 0 1.000366 0 0)"  d="M673.7414 260.0248C 673.7415 255.5977 672.1762 251.819 669.0458 248.6886C 665.9154 245.5582 662.1367 243.993 657.7097 243.993C 653.2827 243.993 649.5039 245.5582 646.3735 248.6886C 643.2432 251.819 641.6779 255.5977 641.6779 260.0248C 641.6779 264.4518 643.2432 268.2305 646.3735 271.3609C 649.5039 274.4913 653.2827 276.0565 657.7097 276.0565C 662.1367 276.0565 665.9154 274.4913 669.0458 271.3609C 672.1762 268.2305 673.7415 264.4518 673.7414 260.0248" stroke="none" fill="#FFB8B8" fill-rule="nonzero" />
    <path transform="matrix(1.000433 0 0 1.000366 -153.7597 -179.6647)"  d="M818.7216 442.0634L816.6305 474.8239L801.9928 464.3684C 801.9928 464.3684 806.872 444.8515 805.478 443.4574L805.478 443.4574L818.7216 442.0634z" stroke="none" fill="#FFB8B8" fill-rule="nonzero" />
    <path transform="matrix(1.000433 0 0 1.000366 -153.7597 -179.6647)"  d="M818.7216 472.0357L802.9526 460.3587C 802.9526 460.3587 795.7195 457.3981 793.6284 460.8832C 793.6284 460.8832 823.6008 467.1565 829.8741 463.6713L829.8741 463.6713L832.6622 445.5485C 832.6622 445.5485 836.1474 434.396 830.5711 427.4257L830.5711 427.4257L818.7216 472.0357z" stroke="none" fill="#FF9C00" fill-rule="nonzero" />
    <path transform="matrix(1.000433 0 0 1.000366 -153.7597 -179.6647)"  d="M797.8106 461.5803C 797.8106 461.5803 792.2344 457.3981 787.3551 464.3684L787.3551 464.3684L797.1135 475.5209L835.4503 443.4575L859.8464 423.9406L797.8106 461.5803z" stroke="none" fill="#FF9C00" fill-rule="nonzero" />
    <path transform="matrix(1.000433 0 0 1.000366 -153.7597 -179.6647)"  d="M823.2523 528.1468C 823.2523 528.1468 788.7492 521.525 785.264 526.4042L785.264 526.4042L784.567 534.0716C 784.567 534.0716 776.8997 548.7092 781.0818 572.4083L781.0818 572.4083L823.2523 528.1468z" stroke="none" fill="#2F2E41" fill-rule="nonzero" />
    <path transform="matrix(1.000433 0 0 1.000366 -153.7597 -179.6647)"  d="M831.9651 628.8679L811.7512 629.5649L818.7216 681.8423C 818.7216 681.8423 813.1453 704.1473 819.4186 705.5414C 823.7794 706.4217 828.2136 706.8884 832.6622 706.9355C 832.6622 706.9355 838.9354 713.2087 845.9058 712.5117C 850.5348 711.9205 855.0203 710.504 859.1494 708.3295C 859.1494 708.3295 860.5434 704.1473 855.6642 702.7533L855.6642 702.7533L831.9651 628.8679z" stroke="none" fill="#2F2E41" fill-rule="nonzero" />
    <path transform="matrix(1.000433 0 0 1.000366 -153.7597 -179.6647)"  d="M803.3868 628.8679L783.1729 629.5649L790.1432 681.8423C 790.1432 681.8423 784.567 704.1473 790.8403 705.5414C 795.201 706.4217 799.6353 706.8884 804.0839 706.9355C 804.0839 706.9355 810.3571 713.2087 817.3275 712.5117C 821.9564 711.9205 826.442 710.504 830.571 708.3295C 830.571 708.3295 831.9651 704.1473 827.0859 702.7533C 822.2067 701.3593 808.9631 697.177 806.175 682.5394L806.175 682.5394L803.3868 628.8679z" stroke="none" fill="#2F2E41" fill-rule="nonzero" />
    <path transform="matrix(1.000433 0 0 1.000366 0 0)"  d="M676.2405 231.7041C 676.2405 229.2789 675.3831 227.2088 673.6682 225.494C 671.9532 223.7791 669.8832 222.9217 667.458 222.9216C 665.0328 222.9217 662.9628 223.7791 661.2479 225.494C 659.533 227.2088 658.6755 229.2789 658.6755 231.7041C 658.6755 234.1293 659.533 236.1994 661.2479 237.9142C 662.9628 239.6291 665.0328 240.4866 667.458 240.4866C 669.8832 240.4866 671.9532 239.6291 673.6682 237.9142C 675.3831 236.1994 676.2405 234.1293 676.2405 231.7041" stroke="none" fill="#2F2E41" fill-rule="nonzero" />
    <path transform="matrix(1.000433 0 0 1.000366 -153.7597 -179.6647)"  d="M832.861 406.5459C 832.8608 402.0497 829.4651 398.2797 824.9934 397.8109C 825.2973 397.7794 825.6027 397.7635 825.9083 397.7635C 830.7587 397.7635 834.6907 401.6955 834.6907 406.5459C 834.6907 411.3963 830.7587 415.3283 825.9083 415.3283C 825.6027 415.3282 825.2973 415.3124 824.9934 415.2809C 829.4651 414.8121 832.8608 411.0421 832.861 406.5459z" stroke="none" fill="#2F2E41" fill-rule="nonzero" />
    <path transform="matrix(1.000433 0 0 1.000366 0 0)"  d="M642.9271 249.5423C 642.9271 244.6919 649.4805 240.7599 657.5645 240.7599C 665.6486 240.7599 672.2019 244.6919 672.2019 249.5423C 672.2019 254.3928 665.6486 258.3248 657.5645 258.3248C 649.4805 258.3248 642.9271 254.3928 642.9271 249.5423" stroke="none" fill="#2F2E41" fill-rule="nonzero" />
    <path transform="matrix(1.000433 0 0 1.000366 -153.7597 -179.6647)"  d="M1041.813 221.7502C 1040.578 199.9182 1023.722 182.1883 1001.981 179.8519C 980.239 177.5156 960.0012 191.2596 954.1561 212.3308C 953.6149 212.3114 953.0742 212.2896 952.5281 212.2896C 932.7033 212.2932 915.2507 225.3578 909.6615 244.3785C 896.5073 238.5987 881.1096 242.4288 872.196 253.6978L872.196 253.6978L1011.558 253.6978C 1019.773 253.721 1027.644 250.3988 1033.357 244.4961C 1039.071 238.5934 1042.135 230.619 1041.844 222.4091C 1041.836 222.1898 1041.825 221.9702 1041.813 221.7502z" stroke="none" fill="#E6E6E6" fill-rule="nonzero" />
    <path transform="matrix(1.000433 0 0 1.000366 0 0)"  d="M783.6139 124.178C 783.614 120.8643 782.4424 118.0359 780.0992 115.6927C 777.7561 113.3496 774.9277 112.178 771.6139 112.178C 768.3002 112.178 765.4717 113.3496 763.1286 115.6927C 760.7855 118.0359 759.6139 120.8643 759.6139 124.178C 759.6139 127.4917 760.7855 130.3201 763.1286 132.6633C 765.4717 135.0064 768.3002 136.178 771.6139 136.178C 774.9277 136.178 777.7561 135.0064 780.0992 132.6633C 782.4424 130.3201 783.614 127.4917 783.6139 124.178" stroke="none" fill="#E6E6E6" fill-rule="nonzero" />
    <path transform="matrix(1.000433 0 0 1.000366 0 0)"  d="M817.8387 95.88566C 817.8387 93.1265 816.8632 90.77141 814.9122 88.82039C 812.9612 86.86937 810.6061 85.89386 807.8469 85.89386C 805.0878 85.89386 802.7327 86.86937 800.7817 88.82039C 798.8307 90.77141 797.8552 93.1265 797.8551 95.88566C 797.8552 98.64482 798.8307 100.9999 800.7817 102.9509C 802.7327 104.902 805.0878 105.8775 807.8469 105.8775C 810.6061 105.8775 812.9612 104.902 814.9122 102.9509C 816.8632 100.9999 817.8387 98.64482 817.8387 95.88566" stroke="none" fill="#E6E6E6" fill-rule="nonzero" />
    <path transform="matrix(1.000433 0 0 1.000366 0 0)"  d="M868.6139 150.178C 868.6139 146.8643 867.4423 144.0359 865.0992 141.6927C 862.756 139.3496 859.9276 138.178 856.6139 138.178C 853.3002 138.178 850.4717 139.3496 848.1286 141.6927C 845.7855 144.0359 844.6139 146.8643 844.6139 150.178C 844.6139 153.4917 845.7855 156.3201 848.1286 158.6633C 850.4717 161.0064 853.3002 162.178 856.6139 162.178C 859.9276 162.178 862.756 161.0064 865.0992 158.6633C 867.4423 156.3201 868.6139 153.4917 868.6139 150.178" stroke="none" fill="#E6E6E6" fill-rule="nonzero" />
    <path transform="matrix(1.000433 0 0 1.000366 0 0)"  d="M777.6139 205.178C 777.614 201.8643 776.4424 199.0359 774.0992 196.6927C 771.7561 194.3496 768.9277 193.178 765.6139 193.178C 762.3002 193.178 759.4717 194.3496 757.1286 196.6927C 754.7855 199.0359 753.6139 201.8643 753.6139 205.178C 753.6139 208.4917 754.7855 211.3201 757.1286 213.6633C 759.4717 216.0064 762.3002 217.178 765.6139 217.178C 768.9277 217.178 771.7561 216.0064 774.0992 213.6633C 776.4424 211.3201 777.614 208.4917 777.6139 205.178" stroke="none" fill="#E6E6E6" fill-rule="nonzero" />
    <path transform="matrix(1.000433 0 0 1.000366 0 0)"  d="M868.6139 274.178C 868.6139 270.8643 867.4423 268.0359 865.0992 265.6927C 862.756 263.3496 859.9276 262.178 856.6139 262.178C 853.3002 262.178 850.4717 263.3496 848.1286 265.6927C 845.7855 268.0359 844.6139 270.8643 844.6139 274.178C 844.6139 277.4917 845.7855 280.3201 848.1286 282.6633C 850.4717 285.0064 853.3002 286.178 856.6139 286.178C 859.9276 286.178 862.756 285.0064 865.0992 282.6633C 867.4423 280.3201 868.6139 277.4917 868.6139 274.178" stroke="none" fill="#E6E6E6" fill-rule="nonzero" />
    <path transform="matrix(1.000433 0 0 1.000366 -153.7597 -179.6647)"  d="M991.2874 685.1653C 991.2915 685.0352 991.3069 684.9081 991.3069 684.777C 991.313 680.6907 989.2363 676.8832 985.7977 674.6758C 982.359 672.4684 978.0325 672.1655 974.3199 673.8723C 970.796 669.8054 964.991 668.5904 960.1318 670.9029C 955.2728 673.2153 952.5546 678.4865 953.4883 683.7861C 953.4273 683.7852 953.3682 683.777 953.3069 683.777C 948.0599 683.7687 943.4159 687.1705 941.8412 692.1757C 940.2666 697.181 942.1265 702.6289 946.4332 705.6263C 950.7399 708.6237 956.4946 708.4753 960.6412 705.2602C 962.5792 709.0358 966.3682 711.5061 970.6047 711.7562C 974.8412 712.0062 978.8944 709.9988 981.263 706.4774C 985.168 709.3183 990.3961 709.5394 994.527 707.0382C 998.6578 704.537 1000.885 699.8018 1000.178 695.0249C 999.47 690.248 995.9658 686.3617 991.2874 685.1653z" stroke="none" fill="#E6E6E6" fill-rule="nonzero" />
    <path transform="matrix(1.000433 0 0 1.000366 0 0)"  d="M872.6139 226.178C 872.6139 224.7973 872.1257 223.6188 871.1494 222.6425C 870.1731 221.6662 868.9946 221.178 867.6139 221.178C 866.2332 221.178 865.0547 221.6662 864.0784 222.6425C 863.1021 223.6188 862.6139 224.7973 862.6139 226.178C 862.6139 227.5587 863.1021 228.7372 864.0784 229.7135C 865.0547 230.6898 866.2332 231.178 867.6139 231.178C 868.9946 231.178 870.1731 230.6898 871.1494 229.7135C 872.1257 228.7372 872.6139 227.5587 872.6139 226.178" stroke="none" fill="#E6E6E6" fill-rule="nonzero" />
    <path transform="matrix(1.000433 0 0 1.000366 0 0)"  d="M840.6139 106.178C 840.614 104.7973 840.1258 103.6188 839.1494 102.6425C 838.1732 101.6662 836.9946 101.178 835.6139 101.178C 834.2332 101.178 833.0547 101.6662 832.0784 102.6425C 831.1021 103.6188 830.6139 104.7973 830.6139 106.178C 830.6139 107.5587 831.1021 108.7372 832.0784 109.7135C 833.0547 110.6898 834.2332 111.178 835.6139 111.178C 836.9946 111.178 838.1732 110.6898 839.1494 109.7135C 840.1258 108.7372 840.614 107.5587 840.6139 106.178" stroke="none" fill="#E6E6E6" fill-rule="nonzero" />
    <path transform="matrix(1.000433 0 0 1.000366 0 0)"  d="M823.6139 230.178C 823.6139 228.7973 823.1257 227.6188 822.1494 226.6425C 821.1731 225.6662 819.9946 225.178 818.6139 225.178C 817.2333 225.178 816.0547 225.6662 815.0784 226.6425C 814.1021 227.6188 813.614 228.7973 813.6139 230.178C 813.614 231.5587 814.1021 232.7372 815.0784 233.7135C 816.0547 234.6898 817.2333 235.178 818.6139 235.178C 819.9946 235.178 821.1731 234.6898 822.1494 233.7135C 823.1257 232.7372 823.6139 231.5587 823.6139 230.178" stroke="none" fill="#E6E6E6" fill-rule="nonzero" />
    <path transform="matrix(1.000433 0 0 1.000366 0 0)"  d="M827.6139 225.178C 827.6139 223.7973 827.1257 222.6188 826.1494 221.6425C 825.1731 220.6662 823.9946 220.178 822.6139 220.178C 821.2332 220.178 820.0547 220.6662 819.0784 221.6425C 818.1021 222.6188 817.6139 223.7973 817.6139 225.178C 817.6139 226.5587 818.1021 227.7372 819.0784 228.7135C 820.0547 229.6898 821.2332 230.178 822.6139 230.178C 823.9946 230.178 825.1731 229.6898 826.1494 228.7135C 827.1257 227.7372 827.6139 226.5587 827.6139 225.178" stroke="none" fill="#E6E6E6" fill-rule="nonzero" />
    <path transform="matrix(1.000433 0 0 1.000366 0 0)"  d="M830.6139 220.178C 830.6139 218.7973 830.1257 217.6188 829.1494 216.6425C 828.1731 215.6662 826.9946 215.178 825.6139 215.178C 824.2332 215.178 823.0547 215.6662 822.0784 216.6425C 821.1021 217.6188 820.6139 218.7973 820.6139 220.178C 820.6139 221.5587 821.1021 222.7372 822.0784 223.7135C 823.0547 224.6898 824.2332 225.178 825.6139 225.178C 826.9946 225.178 828.1731 224.6898 829.1494 223.7135C 830.1257 222.7372 830.6139 221.5587 830.6139 220.178" stroke="none" fill="#E6E6E6" fill-rule="nonzero" />
    <path transform="matrix(1.000433 0 0 1.000366 0 0)"  d="M818.6139 262.178C 818.6139 260.7973 818.1257 259.6188 817.1494 258.6425C 816.1731 257.6662 814.9946 257.178 813.6139 257.178C 812.2332 257.178 811.0547 257.6662 810.0784 258.6425C 809.1021 259.6188 808.6139 260.7973 808.6139 262.178C 808.6139 263.5587 809.1021 264.7372 810.0784 265.7135C 811.0547 266.6899 812.2332 267.178 813.6139 267.178C 814.9946 267.178 816.1731 266.6899 817.1494 265.7135C 818.1257 264.7372 818.6139 263.5587 818.6139 262.178" stroke="none" fill="#E6E6E6" fill-rule="nonzero" />
    <path transform="matrix(1.000433 0 0 1.000366 0 0)"  d="M892.6139 318.178C 892.6139 316.7973 892.1257 315.6188 891.1494 314.6425C 890.1731 313.6662 888.9946 313.178 887.6139 313.178C 886.2333 313.178 885.0547 313.6662 884.0784 314.6425C 883.1021 315.6188 882.614 316.7973 882.6139 318.178C 882.614 319.5587 883.1021 320.7372 884.0784 321.7135C 885.0547 322.6898 886.2333 323.178 887.6139 323.178C 888.9946 323.178 890.1731 322.6898 891.1494 321.7135C 892.1257 320.7372 892.6139 319.5587 892.6139 318.178" stroke="none" fill="#E6E6E6" fill-rule="nonzero" />
    <path transform="matrix(1.000433 0 0 1.000366 0 0)"  d="M785.6139 321.178C 785.6139 319.7973 785.1257 318.6188 784.1494 317.6425C 783.1731 316.6662 781.9946 316.178 780.6139 316.178C 779.2332 316.178 778.0547 316.6662 777.0784 317.6425C 776.1021 318.6188 775.6139 319.7973 775.6139 321.178C 775.6139 322.5587 776.1021 323.7372 777.0784 324.7135C 778.0547 325.6898 779.2332 326.178 780.6139 326.178C 781.9946 326.178 783.1731 325.6898 784.1494 324.7135C 785.1257 323.7372 785.6139 322.5587 785.6139 321.178" stroke="none" fill="#E6E6E6" fill-rule="nonzero" />
    <path transform="matrix(1.000433 0 0 1.000366 0 0)"  d="M791.6139 167.178C 791.6139 165.7973 791.1257 164.6188 790.1494 163.6425C 789.1731 162.6662 787.9946 162.178 786.6139 162.178C 785.2332 162.178 784.0547 162.6662 783.0784 163.6425C 782.1021 164.6188 781.6139 165.7973 781.6139 167.178C 781.6139 168.5587 782.1021 169.7372 783.0784 170.7135C 784.0547 171.6898 785.2332 172.178 786.6139 172.178C 787.9946 172.178 789.1731 171.6898 790.1494 170.7135C 791.1257 169.7372 791.6139 168.5587 791.6139 167.178" stroke="none" fill="#E6E6E6" fill-rule="nonzero" />
    <path transform="matrix(1.000433 0 0 1.000366 0 0)"  d="M814.6139 257.178C 814.6139 255.7973 814.1257 254.6188 813.1494 253.6425C 812.1731 252.6662 810.9946 252.178 809.6139 252.178C 808.2333 252.178 807.0547 252.6662 806.0784 253.6425C 805.1021 254.6188 804.614 255.7973 804.6139 257.178C 804.614 258.5587 805.1021 259.7372 806.0784 260.7135C 807.0547 261.6898 808.2333 262.178 809.6139 262.178C 810.9946 262.178 812.1731 261.6898 813.1494 260.7135C 814.1257 259.7372 814.6139 258.5587 814.6139 257.178" stroke="none" fill="#E6E6E6" fill-rule="nonzero" />
    <path transform="matrix(1.000433 0 0 1.000366 0 0)"  d="M809.6139 249.178C 809.6139 247.7973 809.1257 246.6188 808.1494 245.6425C 807.1731 244.6662 805.9946 244.178 804.6139 244.178C 803.2332 244.178 802.0547 244.6662 801.0784 245.6425C 800.1021 246.6188 799.6139 247.7973 799.6139 249.178C 799.6139 250.5587 800.1021 251.7372 801.0784 252.7135C 802.0547 253.6898 803.2332 254.178 804.6139 254.178C 805.9946 254.178 807.1731 253.6898 808.1494 252.7135C 809.1257 251.7372 809.6139 250.5587 809.6139 249.178" stroke="none" fill="#E6E6E6" fill-rule="nonzero" />
</g>
</svg>